<?xml version="1.0" standalone="no"?>
<!DOCTYPE svg PUBLIC "-//W3C//DTD SVG 20010904//EN"
 "http://www.w3.org/TR/2001/REC-SVG-20010904/DTD/svg10.dtd">
<svg version="1.0" xmlns="http://www.w3.org/2000/svg"
 width="1024.000000pt" height="1024.000000pt" viewBox="0 0 1024.000000 1024.000000"
 preserveAspectRatio="xMidYMid meet">

<g transform="translate(0.000000,1024.000000) scale(0.100000,-0.100000)"
fill="#000000" stroke="none">
<path d="M1760 6380 c456 -4 675 -9 697 -17 118 -42 245 -149 296 -249 55
-109 57 -132 57 -798 0 -580 -1 -617 -20 -691 -11 -43 -31 -98 -45 -122 -39
-66 -123 -145 -196 -186 l-67 -38 -4 -112 c-2 -75 -9 -120 -18 -135 -20 -32
-81 -62 -126 -62 -42 0 -109 42 -314 194 l-115 86 -416 0 c-387 0 -421 1 -481
20 -145 45 -275 170 -325 316 -15 44 -17 118 -20 703 -3 440 0 671 7 705 36
170 165 305 350 368 49 16 50 18 15 12 -109 -16 -267 -137 -327 -250 -58 -107
-58 -112 -58 -800 0 -387 4 -652 10 -685 18 -94 64 -175 140 -250 73 -72 130
-106 219 -133 46 -14 117 -16 468 -16 l414 0 97 -72 c53 -40 142 -103 196
-140 85 -58 106 -68 143 -68 49 0 114 35 135 72 7 13 15 71 18 132 l5 109 65
39 c78 46 171 140 204 206 55 110 56 126 56 801 0 679 0 680 -58 801 -58 119
-204 231 -340 259 -36 7 -255 10 -690 9 l-637 -2 665 -6z"/>
<path d="M1062 6131 c-70 -24 -118 -65 -156 -131 l-31 -55 -3 -619 c-3 -689
-4 -675 64 -754 21 -25 62 -55 102 -74 l67 -33 422 -3 422 -3 163 -114 163
-115 5 83 c6 98 23 130 83 158 23 10 31 16 17 13 -74 -18 -110 -72 -110 -166
0 -38 -4 -68 -9 -68 -5 0 -11 4 -13 8 -2 7 -208 153 -278 197 -9 6 -194 12
-440 15 l-425 5 -55 26 c-76 36 -137 100 -155 162 -22 75 -22 1209 0 1283 19
64 68 122 136 159 l54 30 630 3 c567 2 634 1 683 -14 75 -24 145 -89 172 -161
20 -55 21 -68 18 -667 l-3 -611 -27 -50 c-29 -55 -64 -91 -118 -124 -19 -11
-31 -21 -27 -21 5 0 28 11 52 25 51 31 110 112 125 175 7 31 10 238 8 650 -3
571 -4 607 -22 640 -36 67 -77 109 -134 137 l-57 28 -635 2 c-595 2 -638 1
-688 -16z"/>
<path d="M1256 5725 l-26 -24 0 -426 0 -426 25 -24 24 -25 479 0 479 0 24 27
24 27 -29 -22 c-29 -22 -31 -22 -501 -22 l-472 0 -21 23 c-22 23 -22 26 -22
444 l0 422 26 20 c26 21 36 21 494 21 446 0 469 -1 491 -19 l24 -19 5 -424 5
-423 3 417 2 416 -26 31 -26 31 -477 0 -478 0 -27 -25z"/>
<path d="M3351 5710 c-212 -45 -278 -302 -108 -419 23 -16 87 -45 142 -65 173
-63 205 -87 205 -157 0 -97 -125 -147 -233 -92 -30 15 -67 67 -67 96 0 20 -29
21 -105 3 -49 -11 -50 -12 -49 -47 1 -47 48 -125 97 -160 83 -60 223 -77 333
-39 156 54 229 227 157 371 -37 72 -90 110 -210 149 -118 39 -188 73 -197 95
-3 9 -6 29 -6 44 0 89 163 120 238 45 17 -17 32 -39 32 -47 0 -23 19 -25 93
-9 54 12 67 18 67 34 0 56 -83 149 -162 182 -44 19 -170 28 -227 16z m142 -10
c77 -11 111 -26 162 -72 33 -28 75 -94 75 -116 0 -4 -28 -14 -62 -21 -61 -12
-63 -12 -78 11 -31 48 -71 77 -115 84 -63 9 -111 -2 -147 -35 -26 -23 -32 -36
-31 -65 2 -63 41 -91 193 -141 107 -35 148 -56 181 -92 93 -100 90 -249 -7
-347 -60 -59 -122 -81 -234 -80 -105 1 -174 27 -225 87 -33 38 -69 122 -60
137 3 4 22 11 42 14 21 4 50 9 65 12 23 5 27 1 33 -25 21 -97 177 -144 266
-80 37 26 50 51 51 98 1 74 -34 105 -174 155 -177 64 -217 89 -249 161 -61
134 31 288 188 315 27 4 50 8 53 9 3 0 36 -4 73 -9z"/>
<path d="M6233 5704 c-10 -4 -13 -102 -13 -440 l0 -434 223 0 c212 0 224 1
273 24 63 29 110 85 130 155 18 59 13 135 -11 181 -15 29 -80 90 -95 90 -5 0
10 19 33 43 58 57 75 116 57 195 -10 48 -20 65 -64 107 -72 71 -98 77 -326 81
-107 2 -201 1 -207 -2z m457 -35 c45 -20 99 -74 116 -116 21 -48 17 -127 -6
-174 -13 -24 -39 -51 -66 -69 l-45 -28 34 -11 c34 -12 86 -59 106 -98 16 -30
14 -147 -3 -187 -23 -55 -82 -113 -133 -130 -37 -13 -91 -16 -255 -16 l-208 0
0 353 c0 195 3 387 6 428 l6 74 207 -5 c157 -4 214 -9 241 -21z"/>
<path d="M6370 5456 l0 -126 103 0 c157 1 207 31 207 125 0 91 -44 118 -197
123 l-113 4 0 -126z m250 88 c65 -38 67 -130 3 -174 -32 -22 -49 -25 -140 -28
l-103 -4 0 117 0 117 103 -4 c80 -2 110 -8 137 -24z"/>
<path d="M6370 5086 l0 -138 118 3 c95 3 124 8 152 24 90 53 88 176 -5 228
-11 6 -75 14 -143 17 l-122 5 0 -139z m249 108 c52 -20 71 -51 71 -113 0 -43
-4 -53 -31 -75 -37 -31 -46 -33 -176 -40 l-103 -5 0 124 0 125 100 0 c68 0
112 -5 139 -16z"/>
<path d="M6910 5270 l0 -440 75 0 75 0 -2 438 -3 437 -72 3 -73 3 0 -441z m91
420 l49 0 0 -425 0 -425 -65 0 -65 0 0 431 c0 389 2 431 16 425 9 -3 38 -6 65
-6z"/>
<path d="M8833 5698 c-5 -7 -51 -119 -101 -248 -50 -129 -123 -316 -162 -415
-38 -98 -70 -185 -70 -192 0 -10 21 -13 79 -13 l79 0 37 105 38 105 177 0 177
0 39 -105 38 -105 81 2 80 2 -75 3 -75 4 -39 104 c-27 75 -43 105 -55 105 -9
0 -92 1 -186 3 l-170 2 -39 -108 -39 -107 -68 0 -69 0 25 68 c14 37 89 230
167 430 l141 362 68 0 67 0 72 -182 c211 -535 265 -669 268 -660 2 6 -45 131
-103 278 -59 148 -134 338 -167 422 l-59 152 -73 0 c-47 0 -77 -5 -83 -12z"/>
<path d="M9378 5703 c-1 -4 -2 -203 0 -440 l2 -433 75 0 75 0 -2 438 -3 437
-72 3 c-39 2 -73 -1 -75 -5z m135 -18 c8 -10 7 -781 -1 -822 -4 -21 -10 -23
-63 -23 l-59 0 0 428 0 427 57 0 c32 0 62 -4 66 -10z"/>
<path d="M5870 5536 l0 -85 -37 -3 -38 -3 -3 -67 -3 -68 39 0 40 0 3 -187 c4
-209 12 -235 78 -280 38 -26 120 -38 176 -26 l40 9 0 69 0 70 -43 -3 c-27 -2
-52 2 -68 12 -24 16 -24 18 -24 176 l0 159 63 3 62 3 3 68 3 67 -65 0 -65 0
-3 83 -3 82 -77 3 -78 3 0 -85z m145 -14 l0 -82 63 0 62 0 0 -60 0 -60 -60 0
-60 0 0 -165 c0 -152 2 -167 20 -185 15 -15 33 -20 70 -20 l51 0 -3 -57 -3
-58 -92 0 c-84 0 -94 2 -118 25 -56 52 -60 69 -60 272 l0 188 -42 0 -43 0 0
60 0 60 40 0 40 0 0 85 0 86 68 -3 67 -3 0 -83z"/>
<path d="M1470 5460 l0 -70 290 0 290 0 0 70 0 70 -290 0 -290 0 0 -70z m570
0 l0 -60 -280 0 -280 0 0 60 0 60 280 0 280 0 0 -60z"/>
<path d="M8895 5513 c-4 -10 -18 -47 -30 -83 -13 -36 -40 -107 -59 -159 -20
-51 -36 -94 -36 -95 0 -3 265 3 270 6 6 4 -123 348 -131 348 -4 0 -10 -8 -14
-17z m25 -26 c0 -7 24 -75 54 -152 l53 -140 -115 -3 c-63 -1 -116 -1 -118 0
-5 6 111 308 119 308 4 0 7 -6 7 -13z"/>
<path d="M5630 5457 c-19 -5 -50 -20 -67 -33 l-33 -25 0 25 c0 26 -1 26 -75
26 l-75 0 0 -310 0 -310 75 0 75 0 0 173 c0 94 5 189 10 209 16 56 67 91 141
96 l59 4 0 74 c0 63 -3 74 -17 75 -10 1 -27 2 -38 4 -11 1 -36 -2 -55 -8z
m100 -72 l0 -65 -47 0 c-62 0 -122 -34 -145 -80 -15 -30 -18 -64 -18 -217 l0
-183 -65 0 -65 0 0 300 0 300 66 0 67 0 -5 -50 c-3 -27 -1 -50 3 -50 5 0 9 8
9 18 0 42 83 92 153 92 l47 0 0 -65z"/>
<path d="M4014 5441 c-18 -11 -35 -24 -38 -30 -12 -19 -26 -12 -26 14 0 24 -2
25 -70 25 l-70 0 0 -310 0 -310 75 0 75 0 0 198 c0 216 8 253 60 279 33 17 80
16 103 -1 30 -23 37 -74 37 -278 l0 -198 74 0 74 0 4 198 c2 165 6 203 21 233
27 54 84 73 140 48 45 -20 51 -50 55 -271 l4 -208 75 0 75 0 -4 238 c-3 226
-4 239 -27 285 -41 85 -127 120 -244 103 -32 -5 -56 -18 -86 -45 -36 -33 -43
-36 -54 -23 -6 9 -30 28 -51 44 -33 24 -48 28 -105 28 -47 0 -75 -5 -97 -19z
m175 -5 c15 -8 42 -31 60 -51 l31 -36 27 32 c55 65 166 88 248 50 93 -43 104
-76 112 -361 l6 -230 -66 0 -67 0 0 198 c0 167 -3 202 -18 232 -48 97 -181 77
-212 -31 -6 -19 -10 -116 -10 -216 l0 -183 -65 0 -65 0 0 204 c0 113 -4 216
-10 230 -20 54 -88 73 -150 41 -53 -27 -60 -60 -60 -280 l0 -195 -65 0 -65 0
0 300 0 300 60 0 60 0 0 -42 1 -43 21 29 c43 58 162 85 227 52z"/>
<path d="M4906 5445 c-57 -22 -103 -61 -127 -107 -11 -22 -18 -42 -15 -45 2
-3 14 14 26 36 42 83 143 128 269 119 109 -8 179 -56 201 -137 5 -20 10 -134
12 -254 l3 -217 -56 0 c-59 0 -69 7 -69 50 0 16 -5 15 -32 -11 -44 -40 -90
-54 -174 -53 -55 1 -80 6 -113 25 -95 53 -118 177 -49 265 31 39 110 70 213
83 148 20 145 19 145 52 0 59 -73 99 -157 86 -38 -7 -83 -41 -83 -65 0 -9 -6
-12 -17 -8 -9 4 -38 9 -63 12 -44 4 -44 4 13 -12 l58 -16 33 38 c30 35 37 38
89 38 65 1 110 -25 115 -67 2 -15 0 -27 -5 -27 -27 -1 -214 -31 -244 -40 -54
-15 -101 -51 -127 -95 -19 -34 -22 -50 -19 -103 6 -75 38 -125 103 -157 80
-39 214 -29 274 22 l28 23 6 -25 c6 -24 10 -25 74 -25 l67 0 -3 237 c-2 225
-4 240 -25 283 -16 30 -39 54 -72 75 -44 27 -57 30 -144 32 -65 2 -109 -2
-135 -12z"/>
<path d="M7338 5444 c-63 -19 -149 -98 -179 -166 -19 -43 -24 -70 -24 -144 0
-84 3 -96 35 -160 24 -46 49 -79 78 -101 127 -97 347 -77 446 39 52 60 71 125
71 238 0 87 -3 100 -30 149 -37 66 -102 125 -162 145 -57 20 -172 20 -235 0z
m225 -10 c65 -22 139 -91 167 -156 18 -40 23 -72 24 -133 1 -144 -52 -238
-162 -292 -49 -23 -69 -27 -142 -27 -167 1 -269 84 -300 245 -32 162 56 319
205 365 56 18 153 17 208 -2z"/>
<path d="M7394 5329 c-48 -14 -100 -77 -113 -138 -30 -142 65 -263 195 -248
92 10 154 90 154 200 0 53 -5 71 -30 111 -46 72 -121 100 -206 75z m139 -26
c77 -39 111 -176 65 -262 -63 -118 -230 -116 -287 3 -25 50 -28 131 -7 180 37
89 139 124 229 79z"/>
<path d="M8003 5444 c-60 -22 -127 -86 -160 -152 -25 -51 -28 -68 -28 -157 0
-89 3 -106 28 -156 83 -169 278 -220 426 -112 l24 18 -7 -45 c-15 -93 -68
-140 -159 -140 -64 0 -112 22 -132 60 -15 28 -19 31 -48 24 -75 -16 -112 -31
-115 -45 -1 -9 12 -38 30 -65 26 -38 48 -57 102 -84 65 -33 74 -35 162 -34 87
1 100 3 162 35 72 37 122 95 142 167 6 22 10 172 10 365 l0 327 -75 0 c-72 0
-75 -1 -75 -23 l0 -24 -56 29 c-46 23 -69 28 -123 27 -36 0 -85 -7 -108 -15z
m188 -5 c19 -6 51 -25 72 -41 l37 -29 0 36 0 35 65 0 65 0 0 -316 c0 -189 -4
-332 -11 -357 -16 -64 -71 -132 -131 -164 -43 -22 -70 -27 -144 -31 -103 -5
-146 5 -211 50 -36 24 -103 114 -92 121 2 2 32 10 67 19 l63 16 12 -25 c26
-58 161 -84 237 -45 48 23 80 89 80 161 0 53 -1 54 -15 33 -9 -12 -37 -34 -62
-49 -58 -34 -152 -38 -225 -10 -55 21 -121 89 -151 155 -30 67 -30 208 -1 273
38 82 115 152 188 169 48 12 119 11 157 -1z"/>
<path d="M8052 5323 c-96 -47 -130 -190 -69 -297 68 -120 242 -107 299 22 25
56 21 151 -9 209 -36 71 -145 104 -221 66z m163 -22 c36 -20 66 -77 73 -137
15 -138 -101 -247 -214 -199 -65 27 -84 52 -105 135 -5 22 -5 56 2 90 24 117
139 170 244 111z"/>
<path d="M1470 5110 l0 -90 290 0 290 0 0 90 0 90 -290 0 -290 0 0 -90z m570
0 l0 -80 -280 0 -280 0 0 80 0 80 280 0 280 0 0 -80z"/>
<path d="M5020 5104 c-102 -17 -134 -37 -138 -87 -4 -45 22 -73 75 -83 91 -17
185 41 181 114 l-1 37 -4 -36 c-9 -87 -137 -135 -220 -83 -31 19 -30 64 0 92
29 27 217 58 229 38 5 -7 8 -5 8 7 0 20 -12 20 -130 1z"/>
</g>
</svg>
