<?xml version="1.0" standalone="no"?>
<!DOCTYPE svg PUBLIC "-//W3C//DTD SVG 20010904//EN"
 "http://www.w3.org/TR/2001/REC-SVG-20010904/DTD/svg10.dtd">
<svg version="1.0" xmlns="http://www.w3.org/2000/svg"
 width="1024.000000pt" height="345.000000pt" viewBox="0 0 1024.000000 345.000000"
 preserveAspectRatio="xMidYMid meet">

<g transform="translate(0.000000,345.000000) scale(0.100000,-0.100000)"
fill="#000000" stroke="none">
<path d="M1219 2801 c-109 -35 -205 -115 -254 -211 -53 -105 -55 -127 -55
-765 0 -339 4 -616 10 -650 20 -126 108 -248 223 -313 101 -57 142 -62 548
-62 l366 0 96 -72 c220 -166 238 -178 271 -178 22 0 40 8 57 26 21 23 24 36
27 124 l4 98 64 23 c127 45 244 158 296 288 23 56 23 58 26 679 2 388 -1 643
-7 677 -29 158 -146 287 -302 336 -57 18 -100 19 -687 18 -574 0 -632 -2 -683
-18z m1355 -185 c47 -24 101 -78 130 -131 21 -40 21 -45 21 -665 l0 -625 -28
-57 c-46 -94 -123 -148 -251 -174 -91 -19 -101 -29 -101 -104 0 -33 -2 -60 -4
-60 -3 0 -36 24 -75 54 -39 30 -96 67 -126 83 l-54 28 -396 5 c-386 5 -396 6
-445 28 -65 30 -112 75 -141 137 l-24 50 0 610 c0 390 4 623 10 647 22 76 112
165 190 187 21 5 275 9 645 8 579 -2 612 -3 649 -21z"/>
<path d="M1490 2244 c-25 -9 -62 -32 -82 -52 -66 -63 -68 -80 -68 -499 l0
-373 478 0 c530 0 552 2 618 63 56 52 64 99 64 414 0 165 -4 293 -11 325 -14
63 -57 111 -114 127 -26 7 -179 11 -440 10 -334 0 -407 -3 -445 -15z m755
-299 l0 -70 -327 -3 -328 -2 0 75 0 75 328 -2 327 -3 0 -70z m-210 -350 l0
-70 -220 0 -220 0 -3 73 -3 72 223 -2 223 -3 0 -70z"/>
<path d="M3409 2242 c-141 -73 -157 -252 -31 -348 22 -18 82 -46 132 -62 119
-40 173 -73 194 -116 21 -44 20 -64 -3 -102 -33 -53 -134 -87 -194 -64 -39 16
-84 56 -102 91 -12 23 -19 25 -67 23 -29 -1 -54 -2 -55 -3 -10 -6 37 -99 67
-134 58 -65 124 -91 220 -84 204 13 317 183 227 342 -30 53 -81 86 -212 136
-118 45 -185 97 -185 142 0 72 78 115 174 96 57 -11 81 -29 98 -75 12 -33 13
-34 70 -34 l58 0 -6 28 c-13 50 -22 70 -56 107 -76 87 -223 113 -329 57z"/>
<path d="M6280 1865 l0 -407 188 4 c171 3 191 6 235 27 110 54 158 186 108
296 -18 39 -72 95 -93 95 -5 0 6 19 26 42 41 47 50 83 44 171 -5 78 -33 121
-97 150 -40 18 -70 22 -228 25 l-183 4 0 -407z m353 274 c51 -23 63 -109 23
-156 -24 -27 -27 -28 -140 -31 l-116 -4 0 101 0 101 105 0 c57 0 115 -5 128
-11z m-4 -322 c66 -23 93 -100 61 -176 -19 -47 -62 -61 -184 -61 l-106 0 0
125 0 125 98 -1 c53 0 112 -5 131 -12z"/>
<path d="M6920 1865 l0 -405 60 0 60 0 0 405 0 405 -60 0 -60 0 0 -405z"/>
<path d="M8731 2257 c-6 -8 -71 -178 -145 -378 -74 -200 -139 -376 -145 -391
l-11 -28 68 0 67 0 35 103 35 102 165 3 165 2 39 -105 38 -105 65 0 c58 0 64
2 58 18 -3 9 -63 172 -131 361 -143 394 -150 413 -167 423 -21 13 -124 9 -136
-5z m138 -320 c28 -82 51 -151 51 -153 0 -2 -54 -4 -121 -4 -111 0 -121 1
-114 18 5 13 88 238 111 302 8 22 14 9 73 -163z"/>
<path d="M9240 1865 l0 -405 60 0 60 0 0 405 0 405 -60 0 -60 0 0 -405z"/>
<path d="M5900 2116 l0 -76 -55 0 -55 0 0 -55 0 -55 50 0 50 0 0 -173 c0 -159
2 -176 23 -217 32 -63 72 -82 169 -78 42 2 79 6 83 10 4 4 4 25 0 47 l-7 41
-58 0 c-51 0 -76 9 -91 33 -1 1 -3 77 -5 170 l-4 167 75 0 75 0 0 55 0 55 -74
0 -74 0 0 73 1 72 -52 3 -51 3 0 -75z"/>
<path d="M4979 2036 c-51 -18 -79 -40 -111 -87 -41 -62 -38 -69 32 -69 43 0
60 4 60 13 0 21 42 54 77 62 44 9 108 -11 131 -40 18 -22 38 -92 30 -100 -2
-2 -56 -8 -121 -14 -138 -12 -192 -32 -233 -87 -25 -32 -29 -47 -29 -99 0 -51
4 -67 27 -97 41 -54 87 -71 172 -66 72 5 123 24 164 61 l22 20 0 -36 0 -37 56
0 56 0 -4 218 c-3 201 -5 220 -26 259 -24 46 -69 84 -121 102 -45 15 -137 13
-182 -3z m216 -348 c-19 -60 -85 -119 -158 -139 -94 -25 -155 70 -82 131 23
19 71 28 163 29 82 1 83 1 77 -21z"/>
<path d="M7337 2036 c-129 -48 -199 -148 -201 -286 -1 -123 54 -214 162 -267
48 -24 69 -28 134 -27 65 1 87 6 135 30 211 108 211 443 1 534 -66 29 -177 36
-231 16z m215 -147 c79 -87 59 -239 -42 -307 -30 -20 -44 -23 -94 -20 -54 4
-62 8 -97 45 -66 71 -77 166 -29 250 32 57 48 69 107 81 62 13 113 -3 155 -49z"/>
<path d="M7930 2023 c-126 -64 -181 -220 -130 -368 25 -74 59 -118 115 -151
88 -51 230 -40 299 24 l29 27 -6 -53 c-8 -70 -33 -118 -80 -156 -67 -54 -181
-37 -212 32 -9 19 -18 22 -78 22 -66 0 -68 -1 -61 -22 20 -66 99 -137 173
-158 152 -42 314 43 354 186 14 50 17 108 17 348 l0 287 -52 -3 c-44 -2 -53
-6 -52 -21 1 -10 -1 -16 -5 -14 -59 32 -96 41 -171 45 -77 3 -90 1 -140 -25z
m230 -100 c49 -29 72 -79 72 -155 -1 -74 -18 -121 -58 -159 -19 -18 -39 -24
-88 -27 -110 -7 -165 41 -174 154 -11 140 64 224 188 207 19 -3 46 -12 60 -20z"/>
<path d="M4100 2034 c-8 -3 -32 -15 -52 -25 -32 -16 -38 -16 -38 -4 0 11 -12
15 -50 15 l-50 0 0 -280 0 -280 60 0 60 0 0 219 0 219 45 21 c65 30 116 28
154 -8 l31 -29 0 -211 0 -211 55 0 55 0 0 205 0 204 45 27 c93 54 157 39 175
-41 5 -22 10 -120 10 -217 l0 -178 55 0 55 0 0 213 c0 201 -1 215 -22 257 -26
50 -71 85 -132 101 -74 20 -176 -12 -198 -63 -15 -33 -24 -35 -31 -9 -11 44
-170 97 -227 75z"/>
<path d="M5420 1848 c0 -106 3 -237 7 -290 l6 -98 59 0 58 0 0 193 0 193 28
26 c32 31 72 48 113 48 29 0 29 0 29 60 0 56 -1 60 -24 60 -41 0 -110 -30
-143 -62 l-33 -32 0 47 0 47 -50 0 -50 0 0 -192z"/>
</g>
</svg>
