<?xml version="1.0" standalone="no"?>
<!DOCTYPE svg PUBLIC "-//W3C//DTD SVG 20010904//EN"
 "http://www.w3.org/TR/2001/REC-SVG-20010904/DTD/svg10.dtd">
<svg version="1.0" xmlns="http://www.w3.org/2000/svg"
 width="238.000000pt" height="255.000000pt" viewBox="0 0 238.000000 255.000000"
 preserveAspectRatio="xMidYMid meet">

<g transform="translate(0.000000,255.000000) scale(0.100000,-0.100000)"
fill="#000000" stroke="none">
<path d="M459 2367 c-110 -38 -180 -96 -238 -199 -61 -108 -62 -124 -59 -816
3 -626 3 -627 26 -683 38 -94 96 -166 178 -219 116 -76 147 -80 574 -80 357 0
362 0 393 -22 18 -12 94 -68 169 -125 158 -118 186 -127 232 -72 24 28 26 38
26 124 l0 93 60 20 c114 39 226 136 281 244 48 94 50 127 47 796 -4 622 -4
627 -26 680 -50 118 -116 189 -228 243 l-69 34 -650 2 -650 3 -66 -23z m1381
-193 c61 -34 113 -100 130 -165 7 -25 10 -245 8 -641 l-3 -603 -28 -57 c-46
-94 -123 -148 -251 -174 -39 -8 -78 -22 -86 -30 -10 -9 -15 -35 -15 -74 0 -33
-2 -60 -4 -60 -3 0 -36 24 -75 54 -39 30 -96 67 -126 83 l-55 28 -395 6 c-298
4 -404 9 -434 19 -52 19 -126 88 -154 142 l-22 45 0 614 c0 392 4 627 10 651
22 76 112 165 190 187 21 5 275 9 645 8 l610 -2 55 -31z"/>
<path d="M759 1821 c-77 -24 -134 -78 -154 -145 -12 -40 -15 -123 -15 -418 l0
-368 478 0 c527 0 550 2 617 61 57 51 60 70 60 424 l0 320 -25 44 c-14 25 -41
54 -60 65 -34 20 -51 21 -455 23 -231 1 -432 -2 -446 -6z m739 -303 l-3 -73
-327 -3 -328 -2 0 75 0 75 330 0 331 0 -3 -72z m-213 -353 l0 -70 -222 -3
-223 -2 0 75 0 75 223 -2 222 -3 0 -70z"/>
</g>
</svg>
